<svg width="44" height="65" viewBox="0 0 44 65" fill="none" xmlns="http://www.w3.org/2000/svg">
  <path fill-rule="evenodd" clip-rule="evenodd" d="M9.79945 20.7252C13.604 13.8011 21.7732 -0.332307 43.459 0.00596538C42.0852 9.14998 37.6465 18.2937 14.5551 32.3004L16.3517 33.7803C10.9408 35.4294 8.49605 39.5063 7.95003 41.3386C4.35686 53.3895 15.6648 65.5991 29.2977 62.7449C22.8511 65.3876 15.4534 63.7491 10.9619 60.2078C4.25118 53.231 4.30402 45.6727 6.04776 39.3829C8.24556 31.4554 18.4653 18.8752 28.188 13.6426C15.6119 16.8667 6.94605 29.7634 0.816529 43.77C0.816401 39.7001 0.816599 20.7252 9.79945 13.8011V20.7252ZM42.8248 39.9119C42.8248 49.866 34.7575 57.9355 24.8061 57.9355C17.4386 57.9355 11.1039 53.5126 8.31092 47.1765C10.1641 55.1587 17.319 61.1068 25.8629 61.1068C35.8143 61.1068 43.8816 53.0373 43.8816 43.0832C43.8816 40.4985 43.3377 38.0409 42.3581 35.8186C42.6634 37.1337 42.8248 38.5039 42.8248 39.9119Z" fill="white"/>
  <path d="M27.2729 48.7737C27.2339 48.8116 27.2046 49.049 27.2046 49.2958V49.7515L26.6973 49.78C26.2193 49.8085 26.1803 49.8275 26.1803 50.0458C26.1803 50.2642 26.2193 50.2832 26.6973 50.3117L27.2046 50.3402V50.8623C27.2046 51.3465 27.2144 51.375 27.4485 51.375C27.6826 51.375 27.6924 51.3465 27.6924 50.8623V50.3402L28.2094 50.3117C28.6776 50.2832 28.7167 50.2642 28.7167 50.0458C28.7167 49.8275 28.6776 49.8085 28.2094 49.78L27.7021 49.7515L27.6728 49.2578C27.6533 48.9066 27.6046 48.7547 27.4973 48.7357C27.4095 48.7262 27.3119 48.7357 27.2729 48.7737Z" fill="white"/>
  <path d="M31.289 46.1311C31.25 46.169 31.2207 46.4064 31.2207 46.6532V47.1089L30.7134 47.1374C30.2354 47.1659 30.1964 47.1849 30.1964 47.4033C30.1964 47.6216 30.2354 47.6406 30.7134 47.6691L31.2207 47.6976V48.2197C31.2207 48.7039 31.2305 48.7324 31.4646 48.7324C31.6987 48.7324 31.7085 48.7039 31.7085 48.2197V47.6976L32.2255 47.6691C32.6937 47.6406 32.7328 47.6216 32.7328 47.4033C32.7328 47.1849 32.6937 47.1659 32.2255 47.1374L31.7182 47.1089L31.689 46.6153C31.6694 46.264 31.6207 46.1121 31.5134 46.0931C31.4256 46.0836 31.328 46.0931 31.289 46.1311Z" fill="white"/>
  <path d="M23.4683 41.3737C23.4293 41.4117 23.4 41.6491 23.4 41.8959V42.3516L22.8928 42.3801C22.4148 42.4086 22.3757 42.4276 22.3757 42.6459C22.3757 42.8643 22.4148 42.8833 22.8928 42.9118L23.4 42.9402V43.4624C23.4 43.9466 23.4098 43.9751 23.6439 43.9751C23.878 43.9751 23.8878 43.9466 23.8878 43.4624V42.9402L24.4048 42.9118C24.8731 42.8833 24.9121 42.8643 24.9121 42.6459C24.9121 42.4276 24.8731 42.4086 24.4048 42.3801L23.8975 42.3516L23.8683 41.8579C23.8488 41.5067 23.8 41.3547 23.6927 41.3358C23.6049 41.3263 23.5073 41.3358 23.4683 41.3737Z" fill="white"/>
  <path d="M16.7045 47.5056C16.6655 47.5436 16.6362 47.7809 16.6362 48.0278V48.4835L16.129 48.5119C15.651 48.5404 15.6119 48.5594 15.6119 48.7778C15.6119 48.9961 15.651 49.0151 16.129 49.0436L16.6362 49.0721V49.5943C16.6362 50.0785 16.646 50.1069 16.8801 50.1069C17.1142 50.1069 17.124 50.0785 17.124 49.5943V49.0721L17.641 49.0436C18.1093 49.0151 18.1483 48.9961 18.1483 48.7778C18.1483 48.5594 18.1093 48.5404 17.641 48.5119L17.1338 48.4835L17.1045 47.9898C17.085 47.6385 17.0362 47.4866 16.9289 47.4676C16.8411 47.4581 16.7435 47.4676 16.7045 47.5056Z" fill="white"/>
  <path d="M33.925 38.4714C33.886 38.5094 33.8567 38.7467 33.8567 38.9936V39.4493L33.3494 39.4778C32.8714 39.5062 32.8324 39.5252 32.8324 39.7436C32.8324 39.962 32.8714 39.9809 33.3494 40.0094L33.8567 40.0379V40.5601C33.8567 41.0443 33.8664 41.0728 34.1006 41.0728C34.3347 41.0728 34.3445 41.0443 34.3445 40.5601V40.0379L34.8615 40.0094C35.3297 39.9809 35.3688 39.962 35.3688 39.7436C35.3688 39.5252 35.3297 39.5062 34.8615 39.4778L34.3542 39.4493L34.3249 38.9556C34.3054 38.6043 34.2567 38.4524 34.1494 38.4334C34.0616 38.4239 33.964 38.4334 33.925 38.4714Z" fill="white"/>
  <path d="M13.8511 39.26C13.8121 39.2979 13.7828 39.5353 13.7828 39.7821V40.2379L13.2756 40.2663C12.7976 40.2948 12.7585 40.3138 12.7585 40.5322C12.7585 40.7505 12.7976 40.7695 13.2756 40.798L13.7828 40.8265V41.3487C13.7828 41.8328 13.7926 41.8613 14.0267 41.8613C14.2608 41.8613 14.2706 41.8328 14.2706 41.3487V40.8265L14.7876 40.798C15.2559 40.7695 15.2949 40.7505 15.2949 40.5322C15.2949 40.3138 15.2559 40.2948 14.7876 40.2663L14.2804 40.2379L14.2511 39.7442C14.2316 39.3929 14.1828 39.241 14.0755 39.222C13.9877 39.2125 13.8901 39.222 13.8511 39.26Z" fill="white"/>
  <path d="M23.1198 32.8659C23.0808 32.9039 23.0515 33.1413 23.0515 33.3881V33.8438L22.5442 33.8723C22.0662 33.9008 22.0272 33.9198 22.0272 34.1381C22.0272 34.3565 22.0662 34.3755 22.5442 34.404L23.0515 34.4324V34.9546C23.0515 35.4388 23.0613 35.4673 23.2954 35.4673C23.5295 35.4673 23.5393 35.4388 23.5393 34.9546V34.4324L24.0563 34.404C24.5246 34.3755 24.5636 34.3565 24.5636 34.1381C24.5636 33.9198 24.5246 33.9008 24.0563 33.8723L23.549 33.8438L23.5198 33.3501C23.5003 32.9988 23.4515 32.8469 23.3442 32.8279C23.2564 32.8185 23.1588 32.8279 23.1198 32.8659Z" fill="white"/>
  <path d="M31.289 29.4289C31.25 29.4669 31.2207 29.7042 31.2207 29.9511V30.4068L30.7134 30.4353C30.2354 30.4638 30.1964 30.4828 30.1964 30.7011C30.1964 30.9195 30.2354 30.9385 30.7134 30.9669L31.2207 30.9954V31.5176C31.2207 32.0018 31.2305 32.0303 31.4646 32.0303C31.6987 32.0303 31.7085 32.0018 31.7085 31.5176V30.9954L32.2255 30.9669C32.6937 30.9385 32.7328 30.9195 32.7328 30.7011C32.7328 30.4828 32.6937 30.4638 32.2255 30.4353L31.7182 30.4068L31.689 29.9131C31.6694 29.5618 31.6207 29.4099 31.5134 29.3909C31.4256 29.3814 31.328 29.3909 31.289 29.4289Z" fill="white"/>
</svg>
